<?xml version="1.0" encoding="UTF-8"?>
<svg version="1.1" xmlns="http://www.w3.org/2000/svg" width="195" height="46">
<path d="M0 0 C3.3 0 6.6 0 10 0 C11.32 6.27 12.64 12.54 14 19 C16.475 9.595 16.475 9.595 19 0 C22.3 0 25.6 0 29 0 C31.475 8.91 31.475 8.91 34 18 C35.32 12.06 36.64 6.12 38 0 C40.97 0 43.94 0 47 0 C46.39608479 7.24698257 44.88487065 13.98508048 43 21 C42.72671875 22.04800781 42.4534375 23.09601562 42.171875 24.17578125 C40.13822751 31.86177249 40.13822751 31.86177249 39 33 C37.14712498 33.07226502 35.29166122 33.0838122 33.4375 33.0625 C32.42558594 33.05347656 31.41367187 33.04445312 30.37109375 33.03515625 C29.19740234 33.01775391 29.19740234 33.01775391 28 33 C27.49453964 30.91798472 26.99583165 28.83432933 26.5 26.75 C26.2215625 25.58984375 25.943125 24.4296875 25.65625 23.234375 C25 20 25 20 25 16 C24.34 16 23.68 16 23 16 C22.896875 17.134375 22.79375 18.26875 22.6875 19.4375 C22.10525314 24.22391171 20.62753418 28.47120924 19 33 C15.37 33 11.74 33 8 33 C6.20716529 28.0073975 5.0414687 22.98814032 3.9375 17.8125 C3.59389228 16.21453249 3.24889693 14.61686256 2.90234375 13.01953125 C2.67792603 11.96922729 2.67792603 11.96922729 2.44897461 10.89770508 C1.98143579 8.79544925 1.98143579 8.79544925 1 6 C0.64763503 4.00326516 0.31165441 2.00349261 0 0 Z " fill="#25236B" transform="translate(26,8)"/>
<path d="M0 0 C5.77085092 4.91136249 5.77085092 4.91136249 6.23828125 9.171875 C6.40509346 14.96640433 6.1221505 18.55241656 2 23 C-2.38373454 25.9224897 -5.77777599 26.559524 -11 26 C-15.62994259 24.27511943 -18.62722164 22.38051389 -21 18 C-21.7833891 12.76408309 -21.57936501 8.41062784 -19.5625 3.5 C-14.0412315 -1.88660342 -7.03891525 -3.43511332 0 0 Z M-12 8 C-12.43827201 9.90457929 -12.43827201 9.90457929 -12.3125 12 C-12.30863281 12.70125 -12.30476563 13.4025 -12.30078125 14.125 C-12.14912946 16.2416577 -12.14912946 16.2416577 -10 18 C-6.93008319 17.83557723 -6.93008319 17.83557723 -4 17 C-2.60064987 14.20129973 -2.74734595 12.09501208 -3 9 C-4.18895236 7.05967596 -4.18895236 7.05967596 -6 6 C-9.18490007 5.7226499 -9.18490007 5.7226499 -12 8 Z " fill="#25236B" transform="translate(122,16)"/>
<path d="M0 0 C2.5 2.4375 2.5 2.4375 4 5 C4 5.99 4 6.98 4 8 C-2.0546875 8.1953125 -2.0546875 8.1953125 -4 8 C-4.66 7.34 -5.32 6.68 -6 6 C-6.99 6.33 -7.98 6.66 -9 7 C-8.31292969 7.25394531 -7.62585938 7.50789063 -6.91796875 7.76953125 C-6.01691406 8.11371094 -5.11585937 8.45789062 -4.1875 8.8125 C-2.84751953 9.31716797 -2.84751953 9.31716797 -1.48046875 9.83203125 C0.96968093 10.98572378 2.3668422 11.857806 4 14 C4.51126266 18.01706374 4.68398851 20.10373919 2.1875 23.375 C-1.76112519 26.30826443 -5.20463227 26.32510968 -10 26 C-14.11062053 24.4189921 -16.81375243 22.88666235 -19 19 C-19 18.01 -19 17.02 -19 16 C-16.03 16 -13.06 16 -10 16 C-9.67 16.66 -9.34 17.32 -9 18 C-7.68 17.67 -6.36 17.34 -5 17 C-6.15628906 16.61908203 -6.15628906 16.61908203 -7.3359375 16.23046875 C-8.33882812 15.88628906 -9.34171875 15.54210937 -10.375 15.1875 C-11.37273437 14.85105469 -12.37046875 14.51460937 -13.3984375 14.16796875 C-16 13 -16 13 -18 10 C-18.4375 6.5625 -18.4375 6.5625 -18 3 C-12.7809026 -2.66644861 -6.80448983 -2.91215118 0 0 Z " fill="#25236B" transform="translate(94,16)"/>
<path d="M0 0 C0 2.64 0 5.28 0 8 C-0.99 8.33 -1.98 8.66 -3 9 C-3.33 9.66 -3.66 10.32 -4 11 C-2.68 11 -1.36 11 0 11 C0 13.31 0 15.62 0 18 C-1.32 18 -2.64 18 -4 18 C-4 24.27 -4 30.54 -4 37 C-6.97 37 -9.94 37 -13 37 C-13 30.73 -13 24.46 -13 18 C-13.99 18 -14.98 18 -16 18 C-16 15.69 -16 13.38 -16 11 C-15.01 11 -14.02 11 -13 11 C-12.9175 10.0925 -12.835 9.185 -12.75 8.25 C-11.88763036 4.51306489 -11.03940253 3.2795519 -8 1 C-5.17964968 0.17453161 -2.94288099 0 0 0 Z " fill="#25236B" transform="translate(145,4)"/>
<path d="M0 0 C2.97 0 5.94 0 9 0 C9 1.98 9 3.96 9 6 C10.65 6 12.3 6 14 6 C14 8.31 14 10.62 14 13 C12.35 13 10.7 13 9 13 C9.33 16.63 9.66 20.26 10 24 C11.32 24.33 12.64 24.66 14 25 C14 27.31 14 29.62 14 32 C12.41906283 32.1357675 10.83473048 32.23234745 9.25 32.3125 C8.36828125 32.37050781 7.4865625 32.42851563 6.578125 32.48828125 C4 32 4 32 1.6875 29.9375 C-0.42389228 26.26211344 -0.40734419 23.8964572 -0.25 19.6875 C-0.21390625 18.43324219 -0.1778125 17.17898437 -0.140625 15.88671875 C-0.07101563 14.45779297 -0.07101563 14.45779297 0 13 C-0.99 13 -1.98 13 -3 13 C-3 10.69 -3 8.38 -3 6 C-2.01 6 -1.02 6 0 6 C0 4.02 0 2.04 0 0 Z " fill="#25236B" transform="translate(149,9)"/>
</svg>
