<?xml version="1.0" encoding="UTF-8"?>
<svg version="1.1" xmlns="http://www.w3.org/2000/svg" width="500" height="163">
<path d="M0 0 C15.14530638 13.10740583 26.86313811 32.31712865 28.46289062 52.63964844 C29.43474384 77.78429127 24.69483239 98.96236931 7.2421875 117.8359375 C6.60667969 118.55136719 5.97117188 119.26679688 5.31640625 120.00390625 C-8.16953182 134.43916501 -27.65302627 142.09971493 -47.17578125 143.1171875 C-69.62856296 143.80937345 -89.66830293 137.22601114 -106.54296875 122.38671875 C-122.49431668 107.06091388 -131.60438693 87.62421466 -132.22802734 65.55834961 C-132.43822553 42.37624587 -125.17218125 22.22747763 -109.1171875 5.17578125 C-79.49191837 -24.20424558 -32.48626075 -25.49205164 0 0 Z " fill="#7D8CFE" transform="translate(179.7578125,19.1640625)"/>
<path d="M0 0 C8.58 0 17.16 0 26 0 C29.0665945 12.266378 31.15029381 24.65321283 33.1875 37.125 C33.36651855 38.20386475 33.54553711 39.28272949 33.72998047 40.39428711 C33.8951416 41.42175049 34.06030273 42.44921387 34.23046875 43.5078125 C34.37895264 44.42191895 34.52743652 45.33602539 34.68041992 46.27783203 C35.02439066 49.20775846 35.05335734 52.05261656 35 55 C35.66 55 36.32 55 37 55 C37.14695312 54.12541138 37.14695312 54.12541138 37.296875 53.2331543 C38.76159261 44.8402277 40.59747063 36.54041862 42.45898438 28.22875977 C43.0011544 25.80734425 43.53989196 23.38518397 44.078125 20.96289062 C44.42688315 19.39839286 44.7758348 17.83393822 45.125 16.26953125 C45.28339355 15.55787308 45.44178711 14.8462149 45.60498047 14.11299133 C45.75854004 13.42835312 45.91209961 12.7437149 46.0703125 12.03833008 C46.26778076 11.1554406 46.26778076 11.1554406 46.46923828 10.25471497 C47.27598511 6.82759486 48.14608195 3.41567221 49 0 C57.91 0 66.82 0 76 0 C77.7504126 6.12644411 79.32492716 12.24568214 80.8125 18.4375 C81.07240723 19.51829834 81.33231445 20.59909668 81.60009766 21.71264648 C84.30637508 33.09202418 86.6910487 44.53427473 89 56 C89.24907104 54.45227905 89.24907104 54.45227905 89.50317383 52.87329102 C90.13372808 48.95723084 90.76597904 45.04144602 91.39868164 41.12573242 C91.6696352 39.44741891 91.94015954 37.76903603 92.21020508 36.09057617 C93.64295414 27.18725475 95.09738436 18.28793592 96.63671875 9.40234375 C96.82026665 8.32467491 96.82026665 8.32467491 97.00752258 7.22523499 C97.88306081 2.23387838 97.88306081 2.23387838 99 0 C107.58 0 116.16 0 125 0 C123.69269338 6.53653311 122.33911855 13.01818056 120.79296875 19.49609375 C120.58569656 20.36911636 120.37842438 21.24213898 120.16487122 22.14161682 C119.72791968 23.97963503 119.29005709 25.81743688 118.85131836 27.6550293 C118.19671476 30.39887528 117.54640491 33.1437134 116.89648438 35.88867188 C114.61100505 45.50270901 112.24288985 55.08629586 109.66777039 64.62730408 C108.07835354 70.54808996 106.77260113 76.49376408 105.578125 82.5078125 C105 85 105 85 104 86 C101.78144736 86.08783542 99.56011504 86.10694609 97.33984375 86.09765625 C96.34314415 86.09553383 96.34314415 86.09553383 95.3263092 86.09336853 C93.19666101 86.08775518 91.06711661 86.07520054 88.9375 86.0625 C87.49674631 86.05748671 86.05599097 86.05292351 84.61523438 86.04882812 C81.07678898 86.03778145 77.53840461 86.02050792 74 86 C73.86441177 85.40087296 73.72882355 84.80174591 73.58912659 84.1844635 C72.18221254 77.97101353 70.77022208 71.75873314 69.35522461 65.54711914 C68.8272168 63.22612886 68.30052155 60.90483959 67.77514648 58.58325195 C67.02148561 55.25393197 66.26317184 51.9257019 65.50390625 48.59765625 C65.26845596 47.55287613 65.03300568 46.50809601 64.79042053 45.43165588 C64.57026779 44.47073532 64.35011505 43.50981476 64.12329102 42.51977539 C63.93009781 41.66928116 63.7369046 40.81878693 63.53785706 39.94252014 C63.17464543 38.01038616 63.17464543 38.01038616 62 37 C61.7733667 38.05799805 61.5467334 39.11599609 61.31323242 40.20605469 C60.45981049 44.18745289 59.60369491 48.16826811 58.74682617 52.14892578 C58.37859515 53.86133665 58.01106369 55.57389812 57.64428711 57.28662109 C57.11242321 59.76962011 56.5779195 62.25203942 56.04296875 64.734375 C55.88346237 65.48176941 55.72395599 66.22916382 55.55961609 66.99920654 C54.18054249 73.37864305 52.58582832 79.65668672 51 86 C41.1 86 31.2 86 21 86 C18.96171231 79.88513693 17.17901769 73.99554251 15.75 67.75 C15.31705021 65.89438089 14.88341742 64.03892104 14.44921875 62.18359375 C14.2176709 61.19085449 13.98612305 60.19811523 13.74755859 59.17529297 C12.67187533 54.60627385 11.56230572 50.04565684 10.4543457 45.484375 C7.76679124 34.41927258 5.12621271 23.34448799 2.5625 12.25 C2.303479 11.13085205 2.04445801 10.0117041 1.77758789 8.85864258 C1.42555298 7.32759888 1.42555298 7.32759888 1.06640625 5.765625 C0.85959229 4.86618164 0.65277832 3.96673828 0.43969727 3.04003906 C0 1 0 1 0 0 Z " fill="#FDFDFF" transform="translate(77,53)"/>
<path d="M0 0 C7.04824271 5.72246961 11.26598038 12.56800289 12.26269531 21.74804688 C13.10542267 34.03384573 11.95406708 43.2409657 3.91015625 52.96484375 C-2.39136549 59.58925338 -9.78387 63.33912333 -18.90625 63.890625 C-30.74796616 64.17556549 -40.63806589 63.16097261 -50.1796875 55.421875 C-58.66759459 47.00826031 -60.81680234 37.28032389 -60.96484375 25.65234375 C-60.36643534 15.65227431 -56.46300626 7.63564989 -49.15234375 0.77734375 C-35.07718267 -10.65535414 -14.50733499 -10.46472665 0 0 Z M-32.96484375 18.65234375 C-35.72893229 23.12753472 -35.64956509 28.55769091 -34.96484375 33.65234375 C-33.22945273 36.89174031 -31.54163241 39.07555509 -28.96484375 41.65234375 C-24.51576733 42.40405411 -20.95345682 42.22027041 -17.02734375 39.96484375 C-13.11176063 35.5746445 -12.56231602 31.59651017 -12.71484375 25.8671875 C-13.21710709 21.41744819 -14.80969422 18.61496836 -18.21484375 15.77734375 C-24.2081366 13.32554213 -28.50366273 13.9362381 -32.96484375 18.65234375 Z " fill="#25236B" transform="translate(337.96484375,76.34765625)"/>
<path d="M0 0 C6.3995036 4.31358945 11.05070432 9.40728886 13 17 C13.0220721 18.66652051 13.0246109 20.33351505 13 22 C9.417094 22.14533755 5.83494583 22.23407931 2.25 22.3125 C0.72632813 22.3753418 0.72632813 22.3753418 -0.828125 22.43945312 C-3.6362557 22.48563949 -6.231098 22.47635801 -9 22 C-11.4765625 19.53515625 -11.4765625 19.53515625 -13 17 C-17.60137804 15.78131263 -17.60137804 15.78131263 -22 17 C-22 18.32 -22 19.64 -22 21 C-21.39526855 21.16604736 -20.79053711 21.33209473 -20.16748047 21.50317383 C-17.40151024 22.26655619 -14.63828017 23.03943948 -11.875 23.8125 C-10.92367187 24.07353516 -9.97234375 24.33457031 -8.9921875 24.60351562 C-0.86723445 26.88865867 6.59348274 29.41882162 11.8125 36.4375 C13.90926865 42.72780594 14.35316849 49.37563105 12.00390625 55.66796875 C7.83484376 62.71876282 1.53004179 65.48998607 -6 68 C-18.62476123 69.16985581 -31.15996548 68.60051992 -41.5 60.47265625 C-46.86503123 55.20542507 -48.28335471 50.29605891 -49 43 C-45.06288563 42.85507281 -41.12645375 42.76605463 -37.1875 42.6875 C-36.06794922 42.64560547 -34.94839844 42.60371094 -33.79492188 42.56054688 C-32.18520508 42.53637695 -32.18520508 42.53637695 -30.54296875 42.51171875 C-29.55321045 42.48553467 -28.56345215 42.45935059 -27.54370117 42.43237305 C-25 43 -25 43 -23.27856445 45.46801758 C-22.85663818 46.30357178 -22.43471191 47.13912598 -22 48 C-19.71294169 49.14352916 -18.40735238 49.10334439 -15.875 49.0625 C-13.956875 49.0315625 -13.956875 49.0315625 -12 49 C-11.67 47.68 -11.34 46.36 -11 45 C-15.49638274 42.92199045 -19.80034681 41.46886518 -24.61132812 40.31420898 C-33.24214373 38.22081951 -40.15169156 36.01782461 -45.1640625 28.1796875 C-47.16744594 22.95591199 -46.94938048 16.08009234 -45.3125 10.76953125 C-41.55379766 3.67498058 -35.53664994 0.18701074 -28.1953125 -2.2734375 C-19.1498805 -4.33022277 -8.41081717 -4.29182109 0 0 Z " fill="#25236B" transform="translate(257,72)"/>
<path d="M0 0 C0 6.93 0 13.86 0 21 C-2.97 21.99 -5.94 22.98 -9 24 C-9.33 25.32 -9.66 26.64 -10 28 C-6.7 28 -3.4 28 0 28 C0 34.93 0 41.86 0 49 C-3.63 49 -7.26 49 -11 49 C-11 64.84 -11 80.68 -11 97 C-19.25 97 -27.5 97 -36 97 C-36 81.16 -36 65.32 -36 49 C-38.31 49 -40.62 49 -43 49 C-43 42.07 -43 35.14 -43 28 C-40.69 28 -38.38 28 -36 28 C-35.97421875 27.3709375 -35.9484375 26.741875 -35.921875 26.09375 C-35.3702565 17.76932532 -33.44813636 12.052064 -27.375 6.1875 C-19.08676918 -0.49803425 -10.26683889 -0.32766507 0 0 Z " fill="#25236B" transform="translate(397,42)"/>
<path d="M0 0 C8.58 0 17.16 0 26 0 C26 5.61 26 11.22 26 17 C29.96 17 33.92 17 38 17 C38 23.93 38 30.86 38 38 C34.04 38 30.08 38 26 38 C26 46.58 26 55.16 26 64 C29.96 64.33 33.92 64.66 38 65 C38 71.93 38 78.86 38 86 C34.865 86.061875 31.73 86.12375 28.5 86.1875 C27.04303711 86.22846802 27.04303711 86.22846802 25.55664062 86.27026367 C18.79619685 86.3342101 13.1422109 85.61668434 7.7578125 81.1328125 C-0.25981473 71.27381634 -0.15377151 62.41223743 -0.0625 50.0625 C-0.05798828 48.90169922 -0.05347656 47.74089844 -0.04882812 46.54492188 C-0.03710647 43.69656066 -0.0206976 40.84830778 0 38 C-2.64 38 -5.28 38 -8 38 C-8 31.07 -8 24.14 -8 17 C-5.36 17 -2.72 17 0 17 C0 11.39 0 5.78 0 0 Z " fill="#26246C" transform="translate(408,53)"/>
</svg>
